# xmcd
#
# Track frame offsets:
#        150
#        20277
#        32502
#        62092
#        81560
#        109612
#        120435
#        137952
#        153640
#        168327
#        197772
#
# Disc length: 2841 seconds
#
# Revision: 0
# Processed by: cddbd v1.5.1PL2 Copyright (c) Steve Scherf et al.
# Submitted via: ExactAudioCopy v0.95a5
#
DISCID=8e0b170b
DTITLE=Ronnie Wood - Now Look
DYEAR=1900
DGENRE=Blues
TTITLE0=I Got Lost When I Found You
TTITLE1=Big Bayou
TTITLE2=Breathe On Me
TTITLE3=If You Don't Want My Love
TTITLE4=I Can Say She's Alright
TTITLE5=Caribbean Biigie
TTITLE6=Now Look
TTITLE7=Sweet Baby Mine
TTITLE8=I Can't Stand The Rain
TTITLE9=It's Unholy
TTITLE10=I Got A Feeling
EXTD=
EXTT0=
EXTT1=
EXTT2=
EXTT3=
EXTT4=
EXTT5=
EXTT6=
EXTT7=
EXTT8=
EXTT9=
EXTT10=
PLAYORDER=
